ModelForces
version=1
nRows=4
nColumns=157
inDegrees=no

This file contains the forces exerted on a model during a simulation.

A force is a generalized force, meaning that it can be either a force (N) or a torque (Nm).

Units are S.I. units (second, meters, Newtons, ...)
Angles are in degrees.

endheader
time	glut_med1_r	glut_med2_r	glut_med3_r	glut_min1_r	glut_min2_r	glut_min3_r	semimem_r	semiten_r	bifemlh_r	bifemsh_r	sar_r	add_long_r	add_brev_r	add_mag1_r	add_mag2_r	add_mag3_r	tfl_r	pect_r	grac_r	glut_max1_r	glut_max2_r	glut_max3_r	iliacus_r	psoas_r	quad_fem_r	gem_r	peri_r	rect_fem_r	vas_med_r	vas_int_r	vas_lat_r	med_gas_r	lat_gas_r	soleus_r	tib_post_r	flex_dig_r	flex_hal_r	tib_ant_r	per_brev_r	per_long_r	per_tert_r	ext_dig_r	ext_hal_r	glut_med1_l	glut_med2_l	glut_med3_l	glut_min1_l	glut_min2_l	glut_min3_l	semimem_l	semiten_l	bifemlh_l	bifemsh_l	sar_l	add_long_l	add_brev_l	add_mag1_l	add_mag2_l	add_mag3_l	tfl_l	pect_l	grac_l	glut_max1_l	glut_max2_l	glut_max3_l	iliacus_l	psoas_l	quad_fem_l	gem_l	peri_l	rect_fem_l	vas_med_l	vas_int_l	vas_lat_l	med_gas_l	lat_gas_l	soleus_l	tib_post_l	flex_dig_l	flex_hal_l	tib_ant_l	per_brev_l	per_long_l	per_tert_l	ext_dig_l	ext_hal_l	ercspn_r	ercspn_l	intobl_r	intobl_l	extobl_r	extobl_l	femur_lat_meniscii_r.femur_lat_r.force.X	femur_lat_meniscii_r.femur_lat_r.force.Y	femur_lat_meniscii_r.femur_lat_r.force.Z	femur_lat_meniscii_r.femur_lat_r.torque.X	femur_lat_meniscii_r.femur_lat_r.torque.Y	femur_lat_meniscii_r.femur_lat_r.torque.Z	femur_lat_meniscii_r.meniscus_lat_r.force.X	femur_lat_meniscii_r.meniscus_lat_r.force.Y	femur_lat_meniscii_r.meniscus_lat_r.force.Z	femur_lat_meniscii_r.meniscus_lat_r.torque.X	femur_lat_meniscii_r.meniscus_lat_r.torque.Y	femur_lat_meniscii_r.meniscus_lat_r.torque.Z	femur_med_meniscii_r.femur_med_r.force.X	femur_med_meniscii_r.femur_med_r.force.Y	femur_med_meniscii_r.femur_med_r.force.Z	femur_med_meniscii_r.femur_med_r.torque.X	femur_med_meniscii_r.femur_med_r.torque.Y	femur_med_meniscii_r.femur_med_r.torque.Z	femur_med_meniscii_r.meniscus_med_r.force.X	femur_med_meniscii_r.meniscus_med_r.force.Y	femur_med_meniscii_r.meniscus_med_r.force.Z	femur_med_meniscii_r.meniscus_med_r.torque.X	femur_med_meniscii_r.meniscus_med_r.torque.Y	femur_med_meniscii_r.meniscus_med_r.torque.Z	femur_med_tibia_r.tibia_upper_r.force.X	femur_med_tibia_r.tibia_upper_r.force.Y	femur_med_tibia_r.tibia_upper_r.force.Z	femur_med_tibia_r.tibia_upper_r.torque.X	femur_med_tibia_r.tibia_upper_r.torque.Y	femur_med_tibia_r.tibia_upper_r.torque.Z	femur_med_tibia_r.femur_med_r.force.X	femur_med_tibia_r.femur_med_r.force.Y	femur_med_tibia_r.femur_med_r.force.Z	femur_med_tibia_r.femur_med_r.torque.X	femur_med_tibia_r.femur_med_r.torque.Y	femur_med_tibia_r.femur_med_r.torque.Z	femur_lat_tibia_r.tibia_upper_r.force.X	femur_lat_tibia_r.tibia_upper_r.force.Y	femur_lat_tibia_r.tibia_upper_r.force.Z	femur_lat_tibia_r.tibia_upper_r.torque.X	femur_lat_tibia_r.tibia_upper_r.torque.Y	femur_lat_tibia_r.tibia_upper_r.torque.Z	femur_lat_tibia_r.femur_lat_r.force.X	femur_lat_tibia_r.femur_lat_r.force.Y	femur_lat_tibia_r.femur_lat_r.force.Z	femur_lat_tibia_r.femur_lat_r.torque.X	femur_lat_tibia_r.femur_lat_r.torque.Y	femur_lat_tibia_r.femur_lat_r.torque.Z	aACL_R	pACL_R	aPCL_R	pPCL_R	aMCL_R	mMCL_R	pMCL_R	aLCL_R	mLCL_R	pLCL_R	ground_prescribedForce_fx	ground_prescribedForce_fy	ground_prescribedForce_fz	ground_prescribedForce_px	ground_prescribedForce_py	ground_prescribedForce_pz
      0.51094166	      7.58935629	      5.69428157	      6.09563298	      2.67175416	      3.19281112	      3.21022050	      0.00000000	      3.15167663	      3.46958309	      5.15585364	      1.55144595	      5.64187543	      4.16084351	      2.93351300	      2.46627953	      4.01006211	      3.03442826	      2.24957498	      1.36625289	      3.67446741	      5.58404090	      4.16873062	     22.69932812	     13.02501313	      3.64453918	      2.86267664	      4.12357451	    244.94898176	     43.15942461	     85.46814769	     60.13642590	      0.00000000	      0.00000000	     11.51535831	     11.96512538	      2.22342422	      2.62346332	     11.98196748	      3.97455464	      7.80278640	      8.44614298	      6.99678888	      2.08500997	      7.58935629	      5.69428157	      6.09563298	      2.67175416	      3.19281112	      3.21022050	      8.80560997	      4.10541868	      7.73310065	      7.25158830	      1.52703622	      5.64187543	      4.16084351	      2.93351300	      2.46627953	      4.01006211	      4.11099925	      2.24957498	      1.56631221	      3.67446741	      5.58404090	      4.16873062	     22.69932812	     13.02501313	      3.64453918	      2.86267664	      4.12357451	     10.73554637	      6.62663656	      7.60203663	      8.17402510	     14.10639691	      6.55005026	     31.34117147	     42.45877221	      2.75458852	      2.93463959	      8.50323982	      4.36491438	     12.52202807	      2.01490753	      5.31838330	      1.68961393	     25.12741893	     25.12741893	      9.04752049	      9.04752049	     26.84729422	     26.84729422	    207.39378278	     -0.88160967	     39.81250175	    -16.07240839	      5.12581504	     84.27754619	   -207.39378278	      0.88160967	    -39.81250175	      0.08672233	     -7.04162537	     -1.04633086	     83.95172620	    -61.47223680	    -11.75108239	      3.57395055	     -1.65028049	     33.85250456	    -83.95172620	     61.47223680	     11.75108239	      0.91576129	      1.67811298	     -1.92283873	   -510.53842003	     15.21271912	    104.83401137	     -0.16605332	     10.04544331	     -2.25667026	    510.53842003	    -15.21271912	   -104.83401137	     42.19451440	     -8.91415230	    206.76982229	     -8.79088587	     -1.43400834	     -2.65643462	      0.05333308	     -0.32641718	     -0.00018564	      8.79088587	      1.43400834	      2.65643462	     -1.11442721	      0.21728016	      3.57055800	     18.86832010	      2.54581958	    783.04696916	    316.55780610	     29.14843953	      0.00000000	      0.00000000	      0.00000000	      0.00000000	      0.00000000	      0.00000000	   -110.00000000	      0.00000000	      0.03000000	     -0.03000000	      0.00000000
      0.51578680	      7.58670404	      5.69245446	      6.09365283	      2.67093324	      3.19192312	      3.20910091	      0.00000000	      3.15670220	      3.47953870	      5.18827612	      1.15765780	      5.64004402	      4.15957663	      2.93257863	      2.46547526	      4.00861346	      3.04171816	      2.24887939	      1.37035223	      3.67328936	      5.58224518	      4.16736546	     22.69601516	     13.02128753	      3.64339501	      2.86214109	      4.12144291	    243.89881332	     43.22307666	     85.49526171	     60.18409662	      0.00000000	      0.00000000	     11.42616891	     11.78334639	      2.22270972	      2.55940149	     11.98169716	      4.00308585	      7.87559882	      8.49623623	      6.95914488	      2.08972724	      7.58670404	      5.69245446	      6.09365283	      2.67093324	      3.19192312	      3.20910091	      8.80174622	      4.10399770	      7.72988611	      7.24931033	      1.52656916	      5.64004402	      4.15957663	      2.93257863	      2.46547526	      4.00861346	      4.11010335	      2.24887939	      1.56582483	      3.67328936	      5.58224518	      4.16736546	     22.69601516	     13.02128753	      3.64339501	      2.86214109	      4.12144291	     10.73117147	      6.62446177	      7.59949354	      8.17130455	     14.09688205	      6.54562511	     31.32501043	     42.45244568	      2.75069100	      2.93198738	      8.49994789	      4.36294141	     12.51726799	      2.01432959	      5.31737122	      1.68932975	     25.11968070	     25.11968070	      9.04448622	      9.04448622	     26.84456869	     26.84456869	    205.73510999	     -0.83420439	     39.66818143	    -16.01568161	      5.08556134	     83.60041375	   -205.73510999	      0.83420439	    -39.66818143	      0.08822154	     -6.98772126	     -1.03421484	     84.29141435	    -61.55197652	    -11.64437773	      3.52875938	     -1.65795852	     33.98842974	    -84.29141435	     61.55197652	     11.64437773	      0.91877330	      1.68278160	     -1.92480903	   -514.72612373	     15.44736711	    105.15398797	     -0.16325729	     10.12370967	     -2.27935323	    514.72612373	    -15.44736711	   -105.15398797	     42.31928046	     -8.99067153	    208.46557936	     -7.59343869	     -1.23444428	     -2.30370212	      0.04601667	     -0.28213249	     -0.00041425	      7.59343869	      1.23444428	      2.30370212	     -0.96626199	      0.18772376	      3.08430636	     18.87042307	      2.57546762	    784.04565271	    317.63896736	     29.44570018	      0.00000000	      0.00000000	      0.00000000	      0.00000000	      0.00000000	      0.00000000	   -110.00000000	      0.00000000	      0.03000000	     -0.03000000	      0.00000000
      0.51966016	      7.58469971	      5.69107366	      6.09215637	      2.67031283	      3.19125204	      3.20825482	      0.00000000	      3.14698097	      3.46857379	      5.11590255	      9.93506481	      5.63865999	      4.15861920	      2.93187250	      2.46486746	      4.00751871	      3.04746145	      2.24835371	      1.35942729	      3.67239909	      5.58088811	      4.16633377	     22.69351148	     13.01847208	      3.64253032	      2.86173637	      4.11983119	    247.61338933	     43.06784580	     85.19646338	     59.97668473	      0.00000000	      0.00000000	     11.40090708	     11.65719378	      2.22945756	      2.51529089	     11.96874520	      4.02233722	      7.92820118	      8.52426240	      6.91727809	      2.09047225	      7.58469971	      5.69107366	      6.09215637	      2.67031283	      3.19125204	      3.20825482	      8.79882611	      4.10292383	      7.72745675	      7.24758880	      1.52621619	      5.63865999	      4.15861920	      2.93187250	      2.46486746	      4.00751871	      4.10942631	      2.24835371	      1.56545650	      3.67239909	      5.58088811	      4.16633377	     22.69351148	     13.01847208	      3.64253032	      2.86173637	      4.11983119	     10.72786522	      6.62281824	      7.59757169	      8.16924859	     14.08967409	      6.54227281	     31.31279127	     42.44766333	      2.74762002	      2.92991786	      8.49746011	      4.36145021	     12.51366670	      2.01389282	      5.31668001	      1.68913654	     25.11383260	     25.11383260	      9.04219316	      9.04219316	     26.84250895	     26.84250895	    204.98223944	     -1.09959244	     39.32066083	    -15.86935903	      5.06383814	     83.29483747	   -204.98223944	      1.09959244	    -39.32066083	      0.08059770	     -6.95025344	     -1.03931841	     84.63413069	    -61.67914549	    -11.60174821	      3.50867671	     -1.66519802	     34.12571253	    -84.63413069	     61.67914549	     11.60174821	      0.92208702	      1.68867762	     -1.92835504	   -516.74189997	     15.69183674	    105.35560050	     -0.16082227	     10.16841909	     -2.29602616	    516.74189997	    -15.69183674	   -105.35560050	     42.39668625	     -9.03007192	    209.28243921	     -6.73068782	     -1.08801479	     -2.04221137	      0.04065704	     -0.25002815	     -0.00071213	      6.73068782	      1.08801479	      2.04221137	     -0.85647674	      0.16643745	      2.73401180	     18.85910249	      2.52672758	    784.63889355	    317.42151415	     28.99655472	      0.00000000	      0.00000000	      0.00000000	      0.00000000	      0.00000000	      0.00000000	   -110.00000000	      0.00000000	      0.03000000	     -0.03000000	      0.00000000
      0.52259287	      7.58324730	      5.69007307	      6.09107199	      2.66986326	      3.19076574	      3.20764171	      0.00000000	      3.13898929	      3.45749535	      5.12411376	      0.00000000	      5.63765706	      4.15792540	      2.93136081	      2.46442703	      4.00672543	      3.04871130	      2.24797277	      1.36031606	      3.67175396	      5.57990472	      4.16558617	     22.69169724	     13.01643194	      3.64190372	      2.86144311	      4.11866283	    244.89874663	     43.02762692	     85.20545291	     59.89046068	      0.00000000	      0.00000000	     11.37962805	     11.56563340	      2.23735337	      2.48447729	     11.95689653	      4.03776933	      7.96734551	      8.55896316	      6.88245077	      2.09051228	      7.58324730	      5.69007307	      6.09107199	      2.66986326	      3.19076574	      3.20764171	      8.79670998	      4.10214568	      7.72569631	      7.24634130	      1.52596040	      5.63765706	      4.15792540	      2.93136081	      2.46442703	      4.00672543	      4.10893572	      2.24797277	      1.56518959	      3.67175396	      5.57990472	      4.16558617	     22.69169724	     13.01643194	      3.64190372	      2.86144311	      4.11866283	     10.72546936	      6.62162729	      7.59617906	      8.16775878	     14.08444132	      6.53983911	     31.30393363	     42.44419718	      2.74531993	      2.92837961	      8.49565739	      4.36036953	     12.51105489	      2.01357633	      5.31622258	      1.68900921	     25.10959480	     25.10959480	      9.04053153	      9.04053153	     26.84101639	     26.84101639	    204.19960876	     -1.23525478	     39.12260923	    -15.78633500	      5.04349853	     82.97679117	   -204.19960876	      1.23525478	    -39.12260923	      0.07674372	     -6.91930148	     -1.04014737	     84.72017439	    -61.69891281	    -11.60946905	      3.51045230	     -1.66771304	     34.16011951	    -84.72017439	     61.69891281	     11.60946905	      0.92389533	      1.69191501	     -1.92906157	   -518.93812841	     15.77691282	    105.62675278	     -0.16047325	     10.21412061	     -2.30789383	    518.93812841	    -15.77691282	   -105.62675278	     42.50462015	     -9.07106036	    210.17150603	     -6.24755979	     -1.01100364	     -1.89540773	      0.03777234	     -0.23202331	     -0.00067119	      6.24755979	      1.01100364	      1.89540773	     -0.79494525	      0.15450162	      2.53778112	     18.87343491	      2.59535249	    785.25829511	    317.98263648	     29.08441535	      0.00000000	      0.00000000	      0.00000000	      0.00000000	      0.00000000	      0.00000000	   -110.00000000	      0.00000000	      0.03000000	     -0.03000000	      0.00000000
